<svg width="1186" height="255" viewBox="0 0 1186 255" fill="none" xmlns="http://www.w3.org/2000/svg">
  <g clip-path="url(#clip0_1_2)">
  <rect width="1186" height="255" fill="white"/>
  <g clip-path="url(#clip1_1_2)">
  <path d="M51.5491 145.168C123.321 145.168 181.672 106.635 238.355 69.2012C314.786 18.7181 388.185 -29.7408 487.291 21.0226C510.198 32.7555 538.642 64.1368 568.705 97.3112C612.563 145.707 659.881 197.914 698.569 198.585C733.636 199.203 760.403 159.808 787.347 120.182C814.37 80.4088 841.565 40.3977 877.459 40.3977C907.616 40.3977 931.935 88.1491 953.375 130.248C970.28 163.443 985.388 193.115 1000.17 193.115C1015.29 193.115 1026.68 172.199 1039.17 149.258C1054.35 121.38 1071.16 90.5026 1098.31 90.5026C1119.66 90.5026 1134.89 123.502 1146.51 148.705C1151.63 159.793 1156.04 169.362 1159.98 173.964C1156.26 171.323 1151.93 163.037 1146.7 153.02C1135.64 131.817 1120.51 102.824 1098.31 102.824C1077.32 102.824 1058.35 130.948 1040.95 156.753C1025.34 179.896 1010.99 201.17 997.581 198.585C985.62 196.281 970.696 172.669 953.923 146.134C930.944 109.766 904.496 67.9263 877.459 67.9263C843.311 67.9263 817.04 101.241 790.5 134.913C763.133 169.613 735.461 204.701 698.569 204.063C655.943 203.313 610.097 157.538 566.968 114.487C538.688 86.2367 511.559 59.1563 487.291 46.7229C391.515 -2.32419 314.8 39.284 235.103 82.5102C178.129 113.429 119.62 145.168 51.5491 145.168Z" fill="url(#paint0_linear_1_2)"/>
  <path d="M0 244.901C67.0866 232.678 128.053 199.252 187.15 166.847C285.86 112.729 379.322 61.496 487.291 116.784C506.742 126.759 530.5 144.516 555.951 163.541C604.163 199.594 658.448 240.187 701.147 240.929C736.26 241.546 762.418 215.383 788.748 189.059C815.097 162.693 841.613 136.166 877.459 136.166C904.323 136.166 920.258 161.152 936.244 186.236C952.364 211.509 968.549 236.887 996.034 236.887C1022.37 236.887 1035.57 219.019 1048.59 201.353C1061.32 184.135 1073.87 167.12 1098.31 167.12C1121.88 167.12 1131.73 186.411 1141.65 205.787C1151.63 225.302 1161.65 244.901 1185.76 244.901C1157.54 244.901 1143.78 226.415 1131.53 209.976C1121.71 196.785 1112.86 184.906 1098.31 184.906C1079.86 184.906 1068.03 197.78 1055.32 211.607C1040.6 227.62 1024.72 244.901 996.034 244.901C965.713 244.901 947.413 222.423 930.071 201.121C914.469 181.929 899.618 163.689 877.459 163.689C843.377 163.689 816.782 185.311 789.924 207.152C762.114 229.75 734.026 252.585 697.07 251.934C647.972 251.072 589.927 213.212 538.53 179.687C516.021 165.013 494.799 151.157 476.142 141.602C379.349 92.0297 287.988 136.755 195.847 181.852C131.635 213.289 67.0536 244.901 0 244.901Z" fill="url(#paint1_linear_1_2)"/>
  <path d="M202.898 120.399C136.79 157.916 70.3447 195.643 0 195.643C67.0536 195.643 131.635 164.031 195.847 132.601C287.988 87.4976 379.349 42.7794 476.142 92.3518C497.721 103.412 522.92 122.738 549.607 143.22C594.169 177.411 642.864 214.767 685.675 221.982C648.547 213.114 605.233 171.014 565.137 132.475C536.388 104.841 509.286 78.8047 487.291 67.534C386.731 16.0352 295.145 68.0244 202.898 120.399Z" fill="url(#paint2_linear_1_2)"/>
  <path d="M790.558 167.99C767.824 191.063 744.879 214.34 716.605 221.197C743.213 212.463 765.246 183.749 787.38 155.674C814.39 121.394 841.593 86.9092 877.459 86.9092C907.88 86.9092 931.532 127.222 952.166 162.378C964.71 183.749 976.136 203.965 987.271 211.3C975.098 205.338 961.926 188.737 947.811 170.931C926.503 144.054 903.008 114.438 877.459 114.438C843.344 114.438 817.086 141.077 790.558 167.99Z" fill="url(#paint3_linear_1_2)"/>
  <path d="M1007.9 211.426C1020.79 206.564 1032.64 194.398 1044.73 182.013C1061.11 165.194 1077.9 147.962 1098.31 147.962C1122.7 147.962 1137.4 175.253 1150.29 199.14C1160.65 218.368 1169.83 235.382 1181.9 234.156C1168.06 234.156 1159.35 212.28 1149.71 188.093C1137.8 158.161 1124.46 128.104 1098.31 128.104C1071.61 128.104 1055.92 161.412 1039.17 182.013C1029.04 197.353 1019.11 205.212 1007.9 211.426Z" fill="url(#paint4_linear_1_2)"/>
  </g>
  </g>
  <defs>
  <linearGradient id="paint0_linear_1_2" x1="104.395" y1="197.889" x2="1096.35" y2="-160.012" gradientUnits="userSpaceOnUse">
  <stop stop-color="#CA9755"/>
  <stop offset="0.317708" stop-color="#E9C085"/>
  <stop offset="0.671004" stop-color="#BC8F55"/>
  <stop offset="0.917272" stop-color="#CF954B"/>
  </linearGradient>
  <linearGradient id="paint1_linear_1_2" x1="104.399" y1="198.103" x2="870.443" y2="-326.638" gradientUnits="userSpaceOnUse">
  <stop stop-color="#CA9755"/>
  <stop offset="0.317708" stop-color="#E9C085"/>
  <stop offset="0.671004" stop-color="#BC8F55"/>
  <stop offset="0.917272" stop-color="#CF954B"/>
  </linearGradient>
  <linearGradient id="paint2_linear_1_2" x1="104.399" y1="197.931" x2="1185.26" y2="-4.36438" gradientUnits="userSpaceOnUse">
  <stop stop-color="#CA9755"/>
  <stop offset="0.317708" stop-color="#E9C085"/>
  <stop offset="0.671004" stop-color="#BC8F55"/>
  <stop offset="0.917272" stop-color="#CF954B"/>
  </linearGradient>
  <linearGradient id="paint3_linear_1_2" x1="104.392" y1="197.875" x2="1218.48" y2="142.399" gradientUnits="userSpaceOnUse">
  <stop stop-color="#CA9755"/>
  <stop offset="0.317708" stop-color="#E9C085"/>
  <stop offset="0.671004" stop-color="#BC8F55"/>
  <stop offset="0.917272" stop-color="#CF954B"/>
  </linearGradient>
  <linearGradient id="paint4_linear_1_2" x1="104.378" y1="197.839" x2="1219.8" y2="161.057" gradientUnits="userSpaceOnUse">
  <stop stop-color="#CA9755"/>
  <stop offset="0.317708" stop-color="#E9C085"/>
  <stop offset="0.671004" stop-color="#BC8F55"/>
  <stop offset="0.917272" stop-color="#CF954B"/>
  </linearGradient>
  <clipPath id="clip0_1_2">
  <rect width="1186" height="255" fill="white"/>
  </clipPath>
  <clipPath id="clip1_1_2">
  <rect width="1186" height="255" fill="white"/>
  </clipPath>
  </defs>
  </svg>
  