<svg width="772" height="166" viewBox="0 0 772 166" fill="none" xmlns="http://www.w3.org/2000/svg">
  <g clip-path="url(#clip0_1_17)">
  <path d="M33.5547 95.1522C80.2733 95.1522 118.255 70.068 155.152 45.6996C204.903 12.8361 252.68 -18.7097 317.191 14.3363C332.102 21.9742 350.617 42.4028 370.186 63.9987C398.734 95.5034 429.535 129.489 454.718 129.926C477.544 130.328 494.967 104.683 512.506 78.8869C530.096 52.9955 547.798 26.9491 571.162 26.9491C590.792 26.9491 606.622 58.0343 620.578 85.4396C631.582 107.049 641.416 126.365 651.035 126.365C660.882 126.365 668.294 112.749 676.425 97.8152C686.306 79.6667 697.25 59.5664 714.923 59.5664C728.818 59.5664 738.729 81.0483 746.296 97.455C749.626 104.673 752.5 110.902 755.063 113.898C752.642 112.179 749.824 106.785 746.417 100.264C739.22 86.461 729.368 67.5874 714.923 67.5874C701.255 67.5874 688.909 85.8955 677.582 102.694C667.425 117.76 658.082 131.609 649.353 129.926C641.567 128.426 631.853 113.055 620.935 95.7815C605.977 72.1063 588.761 44.8697 571.162 44.8697C548.934 44.8697 531.834 66.5568 514.558 88.4765C496.744 111.066 478.732 133.907 454.718 133.492C426.971 133.004 397.129 103.205 369.055 75.1797C350.647 56.7894 332.988 39.1606 317.191 31.0667C254.848 -0.862018 204.912 26.2241 153.035 54.3635C115.949 74.4911 77.8642 95.1522 33.5547 95.1522Z" fill="url(#paint0_linear_1_17)"/>
  <path d="M0 160.077C43.6685 152.12 83.3534 130.36 121.821 109.265C186.074 74.0351 246.911 40.6837 317.191 76.6753C329.852 83.1687 345.317 94.7282 361.884 107.113C393.266 130.583 428.602 157.008 456.396 157.491C479.252 157.893 496.279 140.861 513.418 123.725C530.569 106.561 547.829 89.2927 571.162 89.2927C588.649 89.2927 599.021 105.558 609.427 121.887C619.92 138.339 630.455 154.86 648.346 154.86C665.49 154.86 674.08 143.228 682.559 131.728C690.841 120.519 699.014 109.443 714.923 109.443C730.263 109.443 736.677 122.001 743.13 134.614C749.626 147.318 756.148 160.077 771.841 160.077C753.472 160.077 744.515 148.043 736.544 137.341C730.151 128.754 724.391 121.021 714.923 121.021C702.912 121.021 695.211 129.402 686.939 138.403C677.358 148.827 667.017 160.077 648.346 160.077C628.609 160.077 616.697 145.444 605.409 131.577C595.253 119.083 585.586 107.209 571.162 107.209C548.977 107.209 531.666 121.285 514.183 135.503C496.081 150.214 477.798 165.079 453.742 164.655C421.783 164.094 384 139.448 350.544 117.624C335.892 108.071 322.078 99.051 309.934 92.8312C246.929 60.5605 187.459 89.6757 127.482 119.033C85.6851 139.498 43.647 160.077 0 160.077Z" fill="url(#paint1_linear_1_17)"/>
  <path d="M132.072 79.0283C89.0405 103.451 45.7893 128.011 0 128.011C43.647 128.011 85.6851 107.432 127.482 86.9717C187.459 57.6102 246.929 28.4995 309.934 60.7702C323.98 67.9704 340.383 80.5513 357.754 93.8846C386.761 116.142 418.458 140.46 446.325 145.157C422.157 139.384 393.963 111.978 367.863 86.8896C349.15 68.9006 331.508 51.9513 317.191 44.6143C251.734 11.0896 192.118 44.9335 132.072 79.0283Z" fill="url(#paint2_linear_1_17)"/>
  <path d="M514.596 110.009C499.798 125.029 484.862 140.182 466.458 144.646C483.778 138.96 498.12 120.268 512.527 101.992C530.109 79.6758 547.816 57.2272 571.162 57.2272C590.964 57.2272 606.36 83.4697 619.791 106.356C627.956 120.268 635.394 133.428 642.642 138.203C634.718 134.322 626.144 123.515 616.956 111.924C603.086 94.4272 587.793 75.1478 571.162 75.1478C548.956 75.1478 531.864 92.4892 514.596 110.009Z" fill="url(#paint3_linear_1_17)"/>
  <path d="M656.068 138.285C664.461 135.12 672.175 127.2 680.043 119.138C690.707 108.189 701.638 96.9716 714.923 96.9716C730.797 96.9716 740.368 114.737 748.757 130.287C755.502 142.804 761.473 153.88 769.329 153.082C760.32 153.082 754.651 138.841 748.378 123.096C740.626 103.611 731.945 84.0442 714.923 84.0442C697.543 84.0442 687.33 105.727 676.425 119.138C669.83 129.124 663.369 134.24 656.068 138.285Z" fill="url(#paint4_linear_1_17)"/>
  </g>
  <defs>
  <linearGradient id="paint0_linear_1_17" x1="67.9534" y1="129.473" x2="713.656" y2="-103.48" gradientUnits="userSpaceOnUse">
  <stop stop-color="#CA9755"/>
  <stop offset="0.317708" stop-color="#E9C085"/>
  <stop offset="0.671004" stop-color="#BC8F55"/>
  <stop offset="0.917272" stop-color="#CF954B"/>
  </linearGradient>
  <linearGradient id="paint1_linear_1_17" x1="67.9561" y1="129.612" x2="566.621" y2="-211.946" gradientUnits="userSpaceOnUse">
  <stop stop-color="#CA9755"/>
  <stop offset="0.317708" stop-color="#E9C085"/>
  <stop offset="0.671004" stop-color="#BC8F55"/>
  <stop offset="0.917272" stop-color="#CF954B"/>
  </linearGradient>
  <linearGradient id="paint2_linear_1_17" x1="67.956" y1="129.5" x2="771.52" y2="-2.16945" gradientUnits="userSpaceOnUse">
  <stop stop-color="#CA9755"/>
  <stop offset="0.317708" stop-color="#E9C085"/>
  <stop offset="0.671004" stop-color="#BC8F55"/>
  <stop offset="0.917272" stop-color="#CF954B"/>
  </linearGradient>
  <linearGradient id="paint3_linear_1_17" x1="67.9515" y1="129.464" x2="793.141" y2="93.3558" gradientUnits="userSpaceOnUse">
  <stop stop-color="#CA9755"/>
  <stop offset="0.317708" stop-color="#E9C085"/>
  <stop offset="0.671004" stop-color="#BC8F55"/>
  <stop offset="0.917272" stop-color="#CF954B"/>
  </linearGradient>
  <linearGradient id="paint4_linear_1_17" x1="67.9423" y1="129.44" x2="794.002" y2="105.5" gradientUnits="userSpaceOnUse">
  <stop stop-color="#CA9755"/>
  <stop offset="0.317708" stop-color="#E9C085"/>
  <stop offset="0.671004" stop-color="#BC8F55"/>
  <stop offset="0.917272" stop-color="#CF954B"/>
  </linearGradient>
  <clipPath id="clip0_1_17">
  <rect width="772" height="166" fill="white"/>
  </clipPath>
  </defs>
  </svg>
  