<?xml version="1.0" encoding="UTF-8"?><svg id="Icons" fill="white" xmlns="http://www.w3.org/2000/svg" viewBox="0 0 32 32"><path d="M27.928,11.052c-.058-1.277-.261-2.15-.558-2.913-.307-.789-.717-1.458-1.384-2.125-.667-.667-1.336-1.077-2.125-1.384-.763-.297-1.636-.5-2.913-.558-1.28-.058-1.689-.072-4.948-.072s-3.668,.014-4.948,.072c-1.277,.058-2.15,.261-2.913,.558-.789,.307-1.458,.717-2.125,1.384-.667,.667-1.077,1.336-1.384,2.125-.297,.763-.5,1.636-.558,2.913-.058,1.28-.072,1.689-.072,4.948s.014,3.668,.072,4.948c.058,1.277,.261,2.15,.558,2.913,.307,.789,.717,1.458,1.384,2.125,.667,.667,1.336,1.077,2.125,1.384,.763,.297,1.636,.499,2.913,.558,1.28,.058,1.689,.072,4.948,.072s3.668-.014,4.948-.072c1.277-.058,2.15-.261,2.913-.558,.789-.307,1.458-.717,2.125-1.384,.667-.667,1.077-1.336,1.384-2.125,.297-.763,.499-1.636,.558-2.913,.058-1.28,.072-1.689,.072-4.948s-.014-3.668-.072-4.948Zm-2.16,9.797c-.053,1.17-.249,1.805-.413,2.228-.218,.56-.478,.96-.898,1.38-.42,.42-.82,.68-1.38,.898-.423,.164-1.058,.36-2.228,.413-1.265,.058-1.645,.07-4.849,.07s-3.584-.012-4.849-.07c-1.17-.053-1.805-.249-2.228-.413-.56-.218-.96-.478-1.38-.898-.42-.42-.68-.82-.898-1.38-.164-.423-.36-1.058-.413-2.228-.058-1.265-.07-1.645-.07-4.849s.012-3.584,.07-4.849c.053-1.17,.249-1.805,.413-2.228,.218-.56,.478-.96,.898-1.38s.82-.68,1.38-.898c.423-.164,1.058-.36,2.228-.413,1.265-.058,1.645-.07,4.849-.07s3.584,.012,4.849,.07c1.17,.053,1.805,.249,2.228,.413,.56,.218,.96,.478,1.38,.898s.68,.82,.898,1.38c.164,.423,.36,1.058,.413,2.228,.058,1.265,.07,1.645,.07,4.849s-.012,3.584-.07,4.849Zm-9.768-11.011c-3.403,0-6.162,2.759-6.162,6.162s2.759,6.162,6.162,6.162,6.162-2.759,6.162-6.162-2.759-6.162-6.162-6.162Zm0,10.162c-2.209,0-4-1.791-4-4s1.791-4,4-4,4,1.791,4,4-1.791,4-4,4Zm7.846-10.406c0,.795-.645,1.44-1.44,1.44s-1.44-.645-1.44-1.44,.645-1.44,1.44-1.44,1.44,.645,1.44,1.44Z"/></svg>